<svg xmlns="http://www.w3.org/2000/svg" width="700" height="420" viewBox="0 0 700 420"><defs><style type="text/css">@import url("https://fonts.googleapis.com/css2?family=Roboto:wght@400;700&amp;display=swap");</style><marker id="arrow-down-0" markerWidth="10" markerHeight="7" refX="9" refY="3.5" orient="auto"><polygon points="0 0, 10 3.5, 0 7" fill="black" /></marker><marker id="arrow-up-0" markerWidth="10" markerHeight="7" refX="9" refY="3.5" orient="auto"><polygon points="0 0, 10 3.5, 0 7" fill="blue" /></marker><marker id="arrow-down-1" markerWidth="10" markerHeight="7" refX="9" refY="3.5" orient="auto"><polygon points="0 0, 10 3.5, 0 7" fill="black" /></marker><marker id="arrow-up-1" markerWidth="10" markerHeight="7" refX="9" refY="3.5" orient="auto"><polygon points="0 0, 10 3.5, 0 7" fill="blue" /></marker><marker id="arrow-down-2" markerWidth="10" markerHeight="7" refX="9" refY="3.5" orient="auto"><polygon points="0 0, 10 3.5, 0 7" fill="black" /></marker><marker id="arrow-up-2" markerWidth="10" markerHeight="7" refX="9" refY="3.5" orient="auto"><polygon points="0 0, 10 3.5, 0 7" fill="blue" /></marker><marker id="arrow-down-3" markerWidth="10" markerHeight="7" refX="9" refY="3.5" orient="auto"><polygon points="0 0, 10 3.5, 0 7" fill="black" /></marker><marker id="arrow-up-3" markerWidth="10" markerHeight="7" refX="9" refY="3.5" orient="auto"><polygon points="0 0, 10 3.5, 0 7" fill="blue" /></marker><marker id="arrow-down-4" markerWidth="10" markerHeight="7" refX="9" refY="3.5" orient="auto"><polygon points="0 0, 10 3.5, 0 7" fill="black" /></marker><marker id="arrow-up-4" markerWidth="10" markerHeight="7" refX="9" refY="3.5" orient="auto"><polygon points="0 0, 10 3.5, 0 7" fill="blue" /></marker><marker id="arrow-down-5" markerWidth="10" markerHeight="7" refX="9" refY="3.5" orient="auto"><polygon points="0 0, 10 3.5, 0 7" fill="black" /></marker><marker id="arrow-up-5" markerWidth="10" markerHeight="7" refX="9" refY="3.5" orient="auto"><polygon points="0 0, 10 3.5, 0 7" fill="blue" /></marker></defs><g transform="translate(0, 0)"><rect x="2" y="2" width="346" height="136" fill="none" stroke="#ddd" stroke-width="1" rx="5" /><text x="175.0" y="20" text-anchor="middle" font-weight="bold" font-size="16" font-family="Roboto, Arial, sans-serif">DRCD</text><rect x="15.0" y="30" width="42" height="14" rx="5" stroke="black" fill="#f8f8f8" stroke-width="1" /><text x="36.0" y="37.0" text-anchor="middle" dominant-baseline="central" font-size="11" font-weight="bold" font-family="Roboto, Arial, sans-serif">age</text><rect x="81.0" y="30" width="42" height="14" rx="5" stroke="black" fill="#f8f8f8" stroke-width="1" /><text x="102.0" y="37.0" text-anchor="middle" dominant-baseline="central" font-size="11" font-weight="bold" font-family="Roboto, Arial, sans-serif">chol</text><rect x="147.0" y="30" width="42" height="14" rx="5" stroke="black" fill="#f8f8f8" stroke-width="1" /><text x="168.0" y="37.0" text-anchor="middle" dominant-baseline="central" font-size="11" font-weight="bold" font-family="Roboto, Arial, sans-serif">oldpeak</text><rect x="213.0" y="30" width="42" height="14" rx="5" stroke="black" fill="#f8f8f8" stroke-width="1" /><text x="234.0" y="37.0" text-anchor="middle" dominant-baseline="central" font-size="11" font-weight="bold" font-family="Roboto, Arial, sans-serif">thalach</text><rect x="279.0" y="30" width="42" height="14" rx="5" stroke="black" fill="#f8f8f8" stroke-width="1" /><text x="300.0" y="37.0" text-anchor="middle" dominant-baseline="central" font-size="11" font-weight="bold" font-family="Roboto, Arial, sans-serif">trestbps</text><rect x="10.0" y="116" width="42" height="14" rx="5" stroke="black" fill="#f8f8f8" stroke-width="1" /><text x="31.0" y="123.0" text-anchor="middle" dominant-baseline="central" font-size="11" font-weight="bold" font-family="Roboto, Arial, sans-serif">cp</text><rect x="57.142857142857146" y="116" width="42" height="14" rx="5" stroke="black" fill="#f8f8f8" stroke-width="1" /><text x="78.14285714285714" y="123.0" text-anchor="middle" dominant-baseline="central" font-size="11" font-weight="bold" font-family="Roboto, Arial, sans-serif">exang</text><rect x="104.28571428571429" y="116" width="42" height="14" rx="5" stroke="black" fill="#f8f8f8" stroke-width="1" /><text x="125.28571428571429" y="123.0" text-anchor="middle" dominant-baseline="central" font-size="11" font-weight="bold" font-family="Roboto, Arial, sans-serif">fbs</text><rect x="151.42857142857144" y="116" width="42" height="14" rx="5" stroke="black" fill="#f8f8f8" stroke-width="1" /><text x="172.42857142857144" y="123.0" text-anchor="middle" dominant-baseline="central" font-size="11" font-weight="bold" font-family="Roboto, Arial, sans-serif">num</text><rect x="198.57142857142858" y="116" width="42" height="14" rx="5" stroke="black" fill="#f8f8f8" stroke-width="1" /><text x="219.57142857142858" y="123.0" text-anchor="middle" dominant-baseline="central" font-size="11" font-weight="bold" font-family="Roboto, Arial, sans-serif">restecg</text><rect x="245.71428571428572" y="116" width="42" height="14" rx="5" stroke="black" fill="#f8f8f8" stroke-width="1" /><text x="266.7142857142857" y="123.0" text-anchor="middle" dominant-baseline="central" font-size="11" font-weight="bold" font-family="Roboto, Arial, sans-serif">sex</text><rect x="292.8571428571429" y="116" width="42" height="14" rx="5" stroke="black" fill="#f8f8f8" stroke-width="1" /><text x="313.8571428571429" y="123.0" text-anchor="middle" dominant-baseline="central" font-size="11" font-weight="bold" font-family="Roboto, Arial, sans-serif">slope</text><path d="M168.0,44 L165.42857142857144,115.0" stroke="black" stroke-width="0.8" fill="none" stroke-dasharray="none" marker-end="url(#arrow-down-0)" /><path d="M168.0,44 L38.0,115.0" stroke="black" stroke-width="0.8" fill="none" stroke-dasharray="none" marker-end="url(#arrow-down-0)" /><path d="M168.0,44 L85.14285714285714,115.0" stroke="black" stroke-width="0.8" fill="none" stroke-dasharray="none" marker-end="url(#arrow-down-0)" /><path d="M168.0,44 L303.3571428571429,115.0" stroke="black" stroke-width="0.8" fill="none" stroke-dasharray="none" marker-end="url(#arrow-down-0)" /><path d="M300.0,44 L139.9857142857143,115.0" stroke="black" stroke-width="0.8" fill="none" stroke-dasharray="none" marker-end="url(#arrow-down-0)" /><path d="M300.0,44 L230.07142857142858,115.0" stroke="black" stroke-width="0.8" fill="none" stroke-dasharray="none" marker-end="url(#arrow-down-0)" /><path d="M266.7142857142857,116 L116.7,45.0" stroke="blue" stroke-width="0.8" fill="none" stroke-dasharray="3,2" marker-end="url(#arrow-up-0)" /><path d="M102.0,44 L212.57142857142858,115.0" stroke="black" stroke-width="0.8" fill="none" stroke-dasharray="none" marker-end="url(#arrow-down-0)" /><path d="M234.0,44 L182.92857142857144,115.0" stroke="black" stroke-width="0.8" fill="none" stroke-dasharray="none" marker-end="url(#arrow-down-0)" /><path d="M234.0,44 L45.0,115.0" stroke="black" stroke-width="0.8" fill="none" stroke-dasharray="none" marker-end="url(#arrow-down-0)" /><path d="M219.57142857142858,116 L219.3,45.0" stroke="blue" stroke-width="0.8" fill="none" stroke-dasharray="3,2" marker-end="url(#arrow-up-0)" /><path d="M234.0,44 L92.14285714285714,115.0" stroke="black" stroke-width="0.8" fill="none" stroke-dasharray="none" marker-end="url(#arrow-down-0)" /><path d="M234.0,44 L308.6071428571429,115.0" stroke="black" stroke-width="0.8" fill="none" stroke-dasharray="none" marker-end="url(#arrow-down-0)" /><path d="M36.0,44 L158.42857142857144,115.0" stroke="black" stroke-width="0.8" fill="none" stroke-dasharray="none" marker-end="url(#arrow-down-0)" /><path d="M36.0,44 L20.5,115.0" stroke="black" stroke-width="0.8" fill="none" stroke-dasharray="none" marker-end="url(#arrow-down-0)" /><path d="M36.0,44 L110.58571428571429,115.0" stroke="black" stroke-width="0.8" fill="none" stroke-dasharray="none" marker-end="url(#arrow-down-0)" /><path d="M36.0,44 L205.57142857142858,115.0" stroke="black" stroke-width="0.8" fill="none" stroke-dasharray="none" marker-end="url(#arrow-down-0)" /><path d="M36.0,44 L298.1071428571429,115.0" stroke="black" stroke-width="0.8" fill="none" stroke-dasharray="none" marker-end="url(#arrow-down-0)" /></g><g transform="translate(350, 0)"><rect x="2" y="2" width="346" height="136" fill="none" stroke="#ddd" stroke-width="1" rx="5" /><text x="175.0" y="20" text-anchor="middle" font-weight="bold" font-size="16" font-family="Roboto, Arial, sans-serif">LiM</text><rect x="15.0" y="30" width="42" height="14" rx="5" stroke="black" fill="#f8f8f8" stroke-width="1" /><text x="36.0" y="37.0" text-anchor="middle" dominant-baseline="central" font-size="11" font-weight="bold" font-family="Roboto, Arial, sans-serif">age</text><rect x="81.0" y="30" width="42" height="14" rx="5" stroke="black" fill="#f8f8f8" stroke-width="1" /><text x="102.0" y="37.0" text-anchor="middle" dominant-baseline="central" font-size="11" font-weight="bold" font-family="Roboto, Arial, sans-serif">chol</text><rect x="147.0" y="30" width="42" height="14" rx="5" stroke="black" fill="#f8f8f8" stroke-width="1" /><text x="168.0" y="37.0" text-anchor="middle" dominant-baseline="central" font-size="11" font-weight="bold" font-family="Roboto, Arial, sans-serif">oldpeak</text><rect x="213.0" y="30" width="42" height="14" rx="5" stroke="black" fill="#f8f8f8" stroke-width="1" /><text x="234.0" y="37.0" text-anchor="middle" dominant-baseline="central" font-size="11" font-weight="bold" font-family="Roboto, Arial, sans-serif">thalach</text><rect x="279.0" y="30" width="42" height="14" rx="5" stroke="black" fill="#f8f8f8" stroke-width="1" /><text x="300.0" y="37.0" text-anchor="middle" dominant-baseline="central" font-size="11" font-weight="bold" font-family="Roboto, Arial, sans-serif">trestbps</text><rect x="10.0" y="116" width="42" height="14" rx="5" stroke="black" fill="#f8f8f8" stroke-width="1" /><text x="31.0" y="123.0" text-anchor="middle" dominant-baseline="central" font-size="11" font-weight="bold" font-family="Roboto, Arial, sans-serif">cp</text><rect x="57.142857142857146" y="116" width="42" height="14" rx="5" stroke="black" fill="#f8f8f8" stroke-width="1" /><text x="78.14285714285714" y="123.0" text-anchor="middle" dominant-baseline="central" font-size="11" font-weight="bold" font-family="Roboto, Arial, sans-serif">exang</text><rect x="104.28571428571429" y="116" width="42" height="14" rx="5" stroke="black" fill="#f8f8f8" stroke-width="1" /><text x="125.28571428571429" y="123.0" text-anchor="middle" dominant-baseline="central" font-size="11" font-weight="bold" font-family="Roboto, Arial, sans-serif">fbs</text><rect x="151.42857142857144" y="116" width="42" height="14" rx="5" stroke="black" fill="#f8f8f8" stroke-width="1" /><text x="172.42857142857144" y="123.0" text-anchor="middle" dominant-baseline="central" font-size="11" font-weight="bold" font-family="Roboto, Arial, sans-serif">num</text><rect x="198.57142857142858" y="116" width="42" height="14" rx="5" stroke="black" fill="#f8f8f8" stroke-width="1" /><text x="219.57142857142858" y="123.0" text-anchor="middle" dominant-baseline="central" font-size="11" font-weight="bold" font-family="Roboto, Arial, sans-serif">restecg</text><rect x="245.71428571428572" y="116" width="42" height="14" rx="5" stroke="black" fill="#f8f8f8" stroke-width="1" /><text x="266.7142857142857" y="123.0" text-anchor="middle" dominant-baseline="central" font-size="11" font-weight="bold" font-family="Roboto, Arial, sans-serif">sex</text><rect x="292.8571428571429" y="116" width="42" height="14" rx="5" stroke="black" fill="#f8f8f8" stroke-width="1" /><text x="313.8571428571429" y="123.0" text-anchor="middle" dominant-baseline="central" font-size="11" font-weight="bold" font-family="Roboto, Arial, sans-serif">slope</text><path d="M172.42857142857144,116 L175.0,45.0" stroke="blue" stroke-width="0.8" fill="none" stroke-dasharray="3,2" marker-end="url(#arrow-up-1)" /><path d="M266.7142857142857,116 L182.0,45.0" stroke="blue" stroke-width="0.8" fill="none" stroke-dasharray="3,2" marker-end="url(#arrow-up-1)" /><path d="M168.0,44 L38.0,115.0" stroke="black" stroke-width="0.8" fill="none" stroke-dasharray="none" marker-end="url(#arrow-down-1)" /><path d="M168.0,44 L130.53571428571428,115.0" stroke="black" stroke-width="0.8" fill="none" stroke-dasharray="none" marker-end="url(#arrow-down-1)" /><path d="M168.0,44 L209.07142857142858,115.0" stroke="black" stroke-width="0.8" fill="none" stroke-dasharray="none" marker-end="url(#arrow-down-1)" /><path d="M78.14285714285714,116 L157.5,45.0" stroke="blue" stroke-width="0.8" fill="none" stroke-dasharray="3,2" marker-end="url(#arrow-up-1)" /><path d="M300.0,44 L187.12857142857143,115.0" stroke="black" stroke-width="0.8" fill="none" stroke-dasharray="none" marker-end="url(#arrow-down-1)" /><path d="M266.7142857142857,116 L285.3,45.0" stroke="blue" stroke-width="0.8" fill="none" stroke-dasharray="3,2" marker-end="url(#arrow-up-1)" /><path d="M300.0,44 L45.0,115.0" stroke="black" stroke-width="0.8" fill="none" stroke-dasharray="none" marker-end="url(#arrow-down-1)" /><path d="M300.0,44 L141.03571428571428,115.0" stroke="black" stroke-width="0.8" fill="none" stroke-dasharray="none" marker-end="url(#arrow-down-1)" /><path d="M300.0,44 L233.57142857142858,115.0" stroke="black" stroke-width="0.8" fill="none" stroke-dasharray="none" marker-end="url(#arrow-down-1)" /><path d="M300.0,44 L92.84285714285714,115.0" stroke="black" stroke-width="0.8" fill="none" stroke-dasharray="none" marker-end="url(#arrow-down-1)" /><path d="M300.0,44 L324.3571428571429,115.0" stroke="black" stroke-width="0.8" fill="none" stroke-dasharray="none" marker-end="url(#arrow-down-1)" /><path d="M172.42857142857144,116 L109.0,45.0" stroke="blue" stroke-width="0.8" fill="none" stroke-dasharray="3,2" marker-end="url(#arrow-up-1)" /><path d="M102.0,44 L252.01428571428573,115.0" stroke="black" stroke-width="0.8" fill="none" stroke-dasharray="none" marker-end="url(#arrow-down-1)" /><path d="M31.0,116 L88.0,45.0" stroke="blue" stroke-width="0.8" fill="none" stroke-dasharray="3,2" marker-end="url(#arrow-up-1)" /><path d="M102.0,44 L114.78571428571429,115.0" stroke="black" stroke-width="0.8" fill="none" stroke-dasharray="none" marker-end="url(#arrow-down-1)" /><path d="M219.57142857142858,116 L116.0,45.0" stroke="blue" stroke-width="0.8" fill="none" stroke-dasharray="3,2" marker-end="url(#arrow-up-1)" /><path d="M78.14285714285714,116 L95.0,45.0" stroke="blue" stroke-width="0.8" fill="none" stroke-dasharray="3,2" marker-end="url(#arrow-up-1)" /><path d="M102.0,44 L303.3571428571429,115.0" stroke="black" stroke-width="0.8" fill="none" stroke-dasharray="none" marker-end="url(#arrow-down-1)" /><path d="M172.42857142857144,116 L228.75,45.0" stroke="blue" stroke-width="0.8" fill="none" stroke-dasharray="3,2" marker-end="url(#arrow-up-1)" /><path d="M266.7142857142857,116 L241.0,45.0" stroke="blue" stroke-width="0.8" fill="none" stroke-dasharray="3,2" marker-end="url(#arrow-up-1)" /><path d="M31.0,116 L218.25,45.0" stroke="blue" stroke-width="0.8" fill="none" stroke-dasharray="3,2" marker-end="url(#arrow-up-1)" /><path d="M234.0,44 L135.78571428571428,115.0" stroke="black" stroke-width="0.8" fill="none" stroke-dasharray="none" marker-end="url(#arrow-down-1)" /><path d="M234.0,44 L226.57142857142858,115.0" stroke="black" stroke-width="0.8" fill="none" stroke-dasharray="none" marker-end="url(#arrow-down-1)" /><path d="M78.14285714285714,116 L223.5,45.0" stroke="blue" stroke-width="0.8" fill="none" stroke-dasharray="3,2" marker-end="url(#arrow-up-1)" /><path d="M313.8571428571429,116 L248.0,45.0" stroke="blue" stroke-width="0.8" fill="none" stroke-dasharray="3,2" marker-end="url(#arrow-up-1)" /><path d="M172.42857142857144,116 L45.0,45.0" stroke="blue" stroke-width="0.8" fill="none" stroke-dasharray="3,2" marker-end="url(#arrow-up-1)" /><path d="M266.7142857142857,116 L51.0,45.0" stroke="blue" stroke-width="0.8" fill="none" stroke-dasharray="3,2" marker-end="url(#arrow-up-1)" /><path d="M36.0,44 L20.5,115.0" stroke="black" stroke-width="0.8" fill="none" stroke-dasharray="none" marker-end="url(#arrow-down-1)" /><path d="M125.28571428571429,116 L42.0,45.0" stroke="blue" stroke-width="0.8" fill="none" stroke-dasharray="3,2" marker-end="url(#arrow-up-1)" /><path d="M219.57142857142858,116 L48.0,45.0" stroke="blue" stroke-width="0.8" fill="none" stroke-dasharray="3,2" marker-end="url(#arrow-up-1)" /><path d="M78.14285714285714,116 L39.0,45.0" stroke="blue" stroke-width="0.8" fill="none" stroke-dasharray="3,2" marker-end="url(#arrow-up-1)" /><path d="M313.8571428571429,116 L54.0,45.0" stroke="blue" stroke-width="0.8" fill="none" stroke-dasharray="3,2" marker-end="url(#arrow-up-1)" /></g><g transform="translate(0, 140)"><rect x="2" y="2" width="346" height="136" fill="none" stroke="#ddd" stroke-width="1" rx="5" /><text x="175.0" y="20" text-anchor="middle" font-weight="bold" font-size="16" font-family="Roboto, Arial, sans-serif">MIC</text><rect x="15.0" y="30" width="42" height="14" rx="5" stroke="black" fill="#f8f8f8" stroke-width="1" /><text x="36.0" y="37.0" text-anchor="middle" dominant-baseline="central" font-size="11" font-weight="bold" font-family="Roboto, Arial, sans-serif">age</text><rect x="81.0" y="30" width="42" height="14" rx="5" stroke="black" fill="#f8f8f8" stroke-width="1" /><text x="102.0" y="37.0" text-anchor="middle" dominant-baseline="central" font-size="11" font-weight="bold" font-family="Roboto, Arial, sans-serif">chol</text><rect x="147.0" y="30" width="42" height="14" rx="5" stroke="black" fill="#f8f8f8" stroke-width="1" /><text x="168.0" y="37.0" text-anchor="middle" dominant-baseline="central" font-size="11" font-weight="bold" font-family="Roboto, Arial, sans-serif">oldpeak</text><rect x="213.0" y="30" width="42" height="14" rx="5" stroke="black" fill="#f8f8f8" stroke-width="1" /><text x="234.0" y="37.0" text-anchor="middle" dominant-baseline="central" font-size="11" font-weight="bold" font-family="Roboto, Arial, sans-serif">thalach</text><rect x="279.0" y="30" width="42" height="14" rx="5" stroke="black" fill="#f8f8f8" stroke-width="1" /><text x="300.0" y="37.0" text-anchor="middle" dominant-baseline="central" font-size="11" font-weight="bold" font-family="Roboto, Arial, sans-serif">trestbps</text><rect x="10.0" y="116" width="42" height="14" rx="5" stroke="black" fill="#f8f8f8" stroke-width="1" /><text x="31.0" y="123.0" text-anchor="middle" dominant-baseline="central" font-size="11" font-weight="bold" font-family="Roboto, Arial, sans-serif">cp</text><rect x="57.142857142857146" y="116" width="42" height="14" rx="5" stroke="black" fill="#f8f8f8" stroke-width="1" /><text x="78.14285714285714" y="123.0" text-anchor="middle" dominant-baseline="central" font-size="11" font-weight="bold" font-family="Roboto, Arial, sans-serif">exang</text><rect x="104.28571428571429" y="116" width="42" height="14" rx="5" stroke="black" fill="#f8f8f8" stroke-width="1" /><text x="125.28571428571429" y="123.0" text-anchor="middle" dominant-baseline="central" font-size="11" font-weight="bold" font-family="Roboto, Arial, sans-serif">fbs</text><rect x="151.42857142857144" y="116" width="42" height="14" rx="5" stroke="black" fill="#f8f8f8" stroke-width="1" /><text x="172.42857142857144" y="123.0" text-anchor="middle" dominant-baseline="central" font-size="11" font-weight="bold" font-family="Roboto, Arial, sans-serif">num</text><rect x="198.57142857142858" y="116" width="42" height="14" rx="5" stroke="black" fill="#f8f8f8" stroke-width="1" /><text x="219.57142857142858" y="123.0" text-anchor="middle" dominant-baseline="central" font-size="11" font-weight="bold" font-family="Roboto, Arial, sans-serif">restecg</text><rect x="245.71428571428572" y="116" width="42" height="14" rx="5" stroke="black" fill="#f8f8f8" stroke-width="1" /><text x="266.7142857142857" y="123.0" text-anchor="middle" dominant-baseline="central" font-size="11" font-weight="bold" font-family="Roboto, Arial, sans-serif">sex</text><rect x="292.8571428571429" y="116" width="42" height="14" rx="5" stroke="black" fill="#f8f8f8" stroke-width="1" /><text x="313.8571428571429" y="123.0" text-anchor="middle" dominant-baseline="central" font-size="11" font-weight="bold" font-family="Roboto, Arial, sans-serif">slope</text><path d="M172.42857142857144,116 L182.7,45.0" stroke="blue" stroke-width="0.8" fill="none" stroke-dasharray="3,2" marker-end="url(#arrow-up-2)" /><path d="M168.0,44 L39.4,115.0" stroke="black" stroke-width="0.8" fill="none" stroke-dasharray="none" marker-end="url(#arrow-down-2)" /><path d="M78.14285714285714,116 L153.3,45.0" stroke="blue" stroke-width="0.8" fill="none" stroke-dasharray="3,2" marker-end="url(#arrow-up-2)" /><path d="M168.0,44 L305.4571428571429,115.0" stroke="black" stroke-width="0.8" fill="none" stroke-dasharray="none" marker-end="url(#arrow-down-2)" /><path d="M172.42857142857144,116 L289.5,45.0" stroke="blue" stroke-width="0.8" fill="none" stroke-dasharray="3,2" marker-end="url(#arrow-up-2)" /><path d="M266.7142857142857,116 L296.5,45.0" stroke="blue" stroke-width="0.8" fill="none" stroke-dasharray="3,2" marker-end="url(#arrow-up-2)" /><path d="M300.0,44 L47.8,115.0" stroke="black" stroke-width="0.8" fill="none" stroke-dasharray="none" marker-end="url(#arrow-down-2)" /><path d="M125.28571428571429,116 L286.0,45.0" stroke="blue" stroke-width="0.8" fill="none" stroke-dasharray="3,2" marker-end="url(#arrow-up-2)" /><path d="M219.57142857142858,116 L293.0,45.0" stroke="blue" stroke-width="0.8" fill="none" stroke-dasharray="3,2" marker-end="url(#arrow-up-2)" /><path d="M78.14285714285714,116 L282.5,45.0" stroke="blue" stroke-width="0.8" fill="none" stroke-dasharray="3,2" marker-end="url(#arrow-up-2)" /><path d="M300.0,44 L324.3571428571429,115.0" stroke="black" stroke-width="0.8" fill="none" stroke-dasharray="none" marker-end="url(#arrow-down-2)" /><path d="M172.42857142857144,116 L107.25,45.0" stroke="blue" stroke-width="0.8" fill="none" stroke-dasharray="3,2" marker-end="url(#arrow-up-2)" /><path d="M266.7142857142857,116 L117.75,45.0" stroke="blue" stroke-width="0.8" fill="none" stroke-dasharray="3,2" marker-end="url(#arrow-up-2)" /><path d="M102.0,44 L35.2,115.0" stroke="black" stroke-width="0.8" fill="none" stroke-dasharray="none" marker-end="url(#arrow-down-2)" /><path d="M219.57142857142858,116 L112.5,45.0" stroke="blue" stroke-width="0.8" fill="none" stroke-dasharray="3,2" marker-end="url(#arrow-up-2)" /><path d="M78.14285714285714,116 L91.5,45.0" stroke="blue" stroke-width="0.8" fill="none" stroke-dasharray="3,2" marker-end="url(#arrow-up-2)" /><path d="M102.0,44 L301.25714285714287,115.0" stroke="black" stroke-width="0.8" fill="none" stroke-dasharray="none" marker-end="url(#arrow-down-2)" /><path d="M172.42857142857144,116 L225.6,45.0" stroke="blue" stroke-width="0.8" fill="none" stroke-dasharray="3,2" marker-end="url(#arrow-up-2)" /><path d="M266.7142857142857,116 L244.5,45.0" stroke="blue" stroke-width="0.8" fill="none" stroke-dasharray="3,2" marker-end="url(#arrow-up-2)" /><path d="M234.0,44 L43.6,115.0" stroke="black" stroke-width="0.8" fill="none" stroke-dasharray="none" marker-end="url(#arrow-down-2)" /><path d="M125.28571428571429,116 L221.4,45.0" stroke="blue" stroke-width="0.8" fill="none" stroke-dasharray="3,2" marker-end="url(#arrow-up-2)" /><path d="M219.57142857142858,116 L229.8,45.0" stroke="blue" stroke-width="0.8" fill="none" stroke-dasharray="3,2" marker-end="url(#arrow-up-2)" /><path d="M78.14285714285714,116 L217.2,45.0" stroke="blue" stroke-width="0.8" fill="none" stroke-dasharray="3,2" marker-end="url(#arrow-up-2)" /><path d="M234.0,44 L309.6571428571429,115.0" stroke="black" stroke-width="0.8" fill="none" stroke-dasharray="none" marker-end="url(#arrow-down-2)" /><path d="M172.42857142857144,116 L46.5,45.0" stroke="blue" stroke-width="0.8" fill="none" stroke-dasharray="3,2" marker-end="url(#arrow-up-2)" /><path d="M266.7142857142857,116 L53.5,45.0" stroke="blue" stroke-width="0.8" fill="none" stroke-dasharray="3,2" marker-end="url(#arrow-up-2)" /><path d="M36.0,44 L20.5,115.0" stroke="black" stroke-width="0.8" fill="none" stroke-dasharray="none" marker-end="url(#arrow-down-2)" /><path d="M125.28571428571429,116 L43.0,45.0" stroke="blue" stroke-width="0.8" fill="none" stroke-dasharray="3,2" marker-end="url(#arrow-up-2)" /><path d="M219.57142857142858,116 L50.0,45.0" stroke="blue" stroke-width="0.8" fill="none" stroke-dasharray="3,2" marker-end="url(#arrow-up-2)" /><path d="M78.14285714285714,116 L39.5,45.0" stroke="blue" stroke-width="0.8" fill="none" stroke-dasharray="3,2" marker-end="url(#arrow-up-2)" /><path d="M36.0,44 L297.0571428571429,115.0" stroke="black" stroke-width="0.8" fill="none" stroke-dasharray="none" marker-end="url(#arrow-down-2)" /></g><g transform="translate(350, 140)"><rect x="2" y="2" width="346" height="136" fill="none" stroke="#ddd" stroke-width="1" rx="5" /><text x="175.0" y="20" text-anchor="middle" font-weight="bold" font-size="16" font-family="Roboto, Arial, sans-serif">CRACK</text><rect x="15.0" y="30" width="42" height="14" rx="5" stroke="black" fill="#f8f8f8" stroke-width="1" /><text x="36.0" y="37.0" text-anchor="middle" dominant-baseline="central" font-size="11" font-weight="bold" font-family="Roboto, Arial, sans-serif">age</text><rect x="81.0" y="30" width="42" height="14" rx="5" stroke="black" fill="#f8f8f8" stroke-width="1" /><text x="102.0" y="37.0" text-anchor="middle" dominant-baseline="central" font-size="11" font-weight="bold" font-family="Roboto, Arial, sans-serif">chol</text><rect x="147.0" y="30" width="42" height="14" rx="5" stroke="black" fill="#f8f8f8" stroke-width="1" /><text x="168.0" y="37.0" text-anchor="middle" dominant-baseline="central" font-size="11" font-weight="bold" font-family="Roboto, Arial, sans-serif">oldpeak</text><rect x="213.0" y="30" width="42" height="14" rx="5" stroke="black" fill="#f8f8f8" stroke-width="1" /><text x="234.0" y="37.0" text-anchor="middle" dominant-baseline="central" font-size="11" font-weight="bold" font-family="Roboto, Arial, sans-serif">thalach</text><rect x="279.0" y="30" width="42" height="14" rx="5" stroke="black" fill="#f8f8f8" stroke-width="1" /><text x="300.0" y="37.0" text-anchor="middle" dominant-baseline="central" font-size="11" font-weight="bold" font-family="Roboto, Arial, sans-serif">trestbps</text><rect x="10.0" y="116" width="42" height="14" rx="5" stroke="black" fill="#f8f8f8" stroke-width="1" /><text x="31.0" y="123.0" text-anchor="middle" dominant-baseline="central" font-size="11" font-weight="bold" font-family="Roboto, Arial, sans-serif">cp</text><rect x="57.142857142857146" y="116" width="42" height="14" rx="5" stroke="black" fill="#f8f8f8" stroke-width="1" /><text x="78.14285714285714" y="123.0" text-anchor="middle" dominant-baseline="central" font-size="11" font-weight="bold" font-family="Roboto, Arial, sans-serif">exang</text><rect x="104.28571428571429" y="116" width="42" height="14" rx="5" stroke="black" fill="#f8f8f8" stroke-width="1" /><text x="125.28571428571429" y="123.0" text-anchor="middle" dominant-baseline="central" font-size="11" font-weight="bold" font-family="Roboto, Arial, sans-serif">fbs</text><rect x="151.42857142857144" y="116" width="42" height="14" rx="5" stroke="black" fill="#f8f8f8" stroke-width="1" /><text x="172.42857142857144" y="123.0" text-anchor="middle" dominant-baseline="central" font-size="11" font-weight="bold" font-family="Roboto, Arial, sans-serif">num</text><rect x="198.57142857142858" y="116" width="42" height="14" rx="5" stroke="black" fill="#f8f8f8" stroke-width="1" /><text x="219.57142857142858" y="123.0" text-anchor="middle" dominant-baseline="central" font-size="11" font-weight="bold" font-family="Roboto, Arial, sans-serif">restecg</text><rect x="245.71428571428572" y="116" width="42" height="14" rx="5" stroke="black" fill="#f8f8f8" stroke-width="1" /><text x="266.7142857142857" y="123.0" text-anchor="middle" dominant-baseline="central" font-size="11" font-weight="bold" font-family="Roboto, Arial, sans-serif">sex</text><rect x="292.8571428571429" y="116" width="42" height="14" rx="5" stroke="black" fill="#f8f8f8" stroke-width="1" /><text x="313.8571428571429" y="123.0" text-anchor="middle" dominant-baseline="central" font-size="11" font-weight="bold" font-family="Roboto, Arial, sans-serif">slope</text><path d="M172.42857142857144,116 L172.2,45.0" stroke="blue" stroke-width="0.8" fill="none" stroke-dasharray="3,2" marker-end="url(#arrow-up-3)" /><path d="M266.7142857142857,116 L180.6,45.0" stroke="blue" stroke-width="0.8" fill="none" stroke-dasharray="3,2" marker-end="url(#arrow-up-3)" /><path d="M31.0,116 L152.25,45.0" stroke="blue" stroke-width="0.8" fill="none" stroke-dasharray="3,2" marker-end="url(#arrow-up-3)" /><path d="M125.28571428571429,116 L162.75,45.0" stroke="blue" stroke-width="0.8" fill="none" stroke-dasharray="3,2" marker-end="url(#arrow-up-3)" /><path d="M219.57142857142858,116 L176.4,45.0" stroke="blue" stroke-width="0.8" fill="none" stroke-dasharray="3,2" marker-end="url(#arrow-up-3)" /><path d="M78.14285714285714,116 L157.5,45.0" stroke="blue" stroke-width="0.8" fill="none" stroke-dasharray="3,2" marker-end="url(#arrow-up-3)" /><path d="M313.8571428571429,116 L184.8,45.0" stroke="blue" stroke-width="0.8" fill="none" stroke-dasharray="3,2" marker-end="url(#arrow-up-3)" /><path d="M172.42857142857144,116 L289.5,45.0" stroke="blue" stroke-width="0.8" fill="none" stroke-dasharray="3,2" marker-end="url(#arrow-up-3)" /><path d="M266.7142857142857,116 L296.5,45.0" stroke="blue" stroke-width="0.8" fill="none" stroke-dasharray="3,2" marker-end="url(#arrow-up-3)" /><path d="M31.0,116 L282.5,45.0" stroke="blue" stroke-width="0.8" fill="none" stroke-dasharray="3,2" marker-end="url(#arrow-up-3)" /><path d="M219.57142857142858,116 L293.0,45.0" stroke="blue" stroke-width="0.8" fill="none" stroke-dasharray="3,2" marker-end="url(#arrow-up-3)" /><path d="M78.14285714285714,116 L286.0,45.0" stroke="blue" stroke-width="0.8" fill="none" stroke-dasharray="3,2" marker-end="url(#arrow-up-3)" /><path d="M313.8571428571429,116 L310.5,45.0" stroke="blue" stroke-width="0.8" fill="none" stroke-dasharray="3,2" marker-end="url(#arrow-up-3)" /><path d="M172.42857142857144,116 L109.0,45.0" stroke="blue" stroke-width="0.8" fill="none" stroke-dasharray="3,2" marker-end="url(#arrow-up-3)" /><path d="M266.7142857142857,116 L116.0,45.0" stroke="blue" stroke-width="0.8" fill="none" stroke-dasharray="3,2" marker-end="url(#arrow-up-3)" /><path d="M31.0,116 L88.0,45.0" stroke="blue" stroke-width="0.8" fill="none" stroke-dasharray="3,2" marker-end="url(#arrow-up-3)" /><path d="M125.28571428571429,116 L105.5,45.0" stroke="blue" stroke-width="0.8" fill="none" stroke-dasharray="3,2" marker-end="url(#arrow-up-3)" /><path d="M219.57142857142858,116 L112.5,45.0" stroke="blue" stroke-width="0.8" fill="none" stroke-dasharray="3,2" marker-end="url(#arrow-up-3)" /><path d="M78.14285714285714,116 L95.0,45.0" stroke="blue" stroke-width="0.8" fill="none" stroke-dasharray="3,2" marker-end="url(#arrow-up-3)" /><path d="M313.8571428571429,116 L119.5,45.0" stroke="blue" stroke-width="0.8" fill="none" stroke-dasharray="3,2" marker-end="url(#arrow-up-3)" /><path d="M172.42857142857144,116 L225.6,45.0" stroke="blue" stroke-width="0.8" fill="none" stroke-dasharray="3,2" marker-end="url(#arrow-up-3)" /><path d="M266.7142857142857,116 L241.0,45.0" stroke="blue" stroke-width="0.8" fill="none" stroke-dasharray="3,2" marker-end="url(#arrow-up-3)" /><path d="M31.0,116 L217.2,45.0" stroke="blue" stroke-width="0.8" fill="none" stroke-dasharray="3,2" marker-end="url(#arrow-up-3)" /><path d="M219.57142857142858,116 L229.8,45.0" stroke="blue" stroke-width="0.8" fill="none" stroke-dasharray="3,2" marker-end="url(#arrow-up-3)" /><path d="M78.14285714285714,116 L221.4,45.0" stroke="blue" stroke-width="0.8" fill="none" stroke-dasharray="3,2" marker-end="url(#arrow-up-3)" /><path d="M313.8571428571429,116 L248.0,45.0" stroke="blue" stroke-width="0.8" fill="none" stroke-dasharray="3,2" marker-end="url(#arrow-up-3)" /><path d="M172.42857142857144,116 L43.0,45.0" stroke="blue" stroke-width="0.8" fill="none" stroke-dasharray="3,2" marker-end="url(#arrow-up-3)" /><path d="M266.7142857142857,116 L50.0,45.0" stroke="blue" stroke-width="0.8" fill="none" stroke-dasharray="3,2" marker-end="url(#arrow-up-3)" /><path d="M31.0,116 L25.5,45.0" stroke="blue" stroke-width="0.8" fill="none" stroke-dasharray="3,2" marker-end="url(#arrow-up-3)" /><path d="M36.0,44 L110.58571428571429,115.0" stroke="black" stroke-width="0.8" fill="none" stroke-dasharray="none" marker-end="url(#arrow-down-3)" /><path d="M219.57142857142858,116 L46.5,45.0" stroke="blue" stroke-width="0.8" fill="none" stroke-dasharray="3,2" marker-end="url(#arrow-up-3)" /><path d="M78.14285714285714,116 L39.5,45.0" stroke="blue" stroke-width="0.8" fill="none" stroke-dasharray="3,2" marker-end="url(#arrow-up-3)" /><path d="M313.8571428571429,116 L53.5,45.0" stroke="blue" stroke-width="0.8" fill="none" stroke-dasharray="3,2" marker-end="url(#arrow-up-3)" /></g><g transform="translate(0, 280)"><rect x="2" y="2" width="346" height="136" fill="none" stroke="#ddd" stroke-width="1" rx="5" /><text x="175.0" y="20" text-anchor="middle" font-weight="bold" font-size="16" font-family="Roboto, Arial, sans-serif">HCM</text><rect x="15.0" y="30" width="42" height="14" rx="5" stroke="black" fill="#f8f8f8" stroke-width="1" /><text x="36.0" y="37.0" text-anchor="middle" dominant-baseline="central" font-size="11" font-weight="bold" font-family="Roboto, Arial, sans-serif">age</text><rect x="81.0" y="30" width="42" height="14" rx="5" stroke="black" fill="#f8f8f8" stroke-width="1" /><text x="102.0" y="37.0" text-anchor="middle" dominant-baseline="central" font-size="11" font-weight="bold" font-family="Roboto, Arial, sans-serif">chol</text><rect x="147.0" y="30" width="42" height="14" rx="5" stroke="black" fill="#f8f8f8" stroke-width="1" /><text x="168.0" y="37.0" text-anchor="middle" dominant-baseline="central" font-size="11" font-weight="bold" font-family="Roboto, Arial, sans-serif">oldpeak</text><rect x="213.0" y="30" width="42" height="14" rx="5" stroke="black" fill="#f8f8f8" stroke-width="1" /><text x="234.0" y="37.0" text-anchor="middle" dominant-baseline="central" font-size="11" font-weight="bold" font-family="Roboto, Arial, sans-serif">thalach</text><rect x="279.0" y="30" width="42" height="14" rx="5" stroke="black" fill="#f8f8f8" stroke-width="1" /><text x="300.0" y="37.0" text-anchor="middle" dominant-baseline="central" font-size="11" font-weight="bold" font-family="Roboto, Arial, sans-serif">trestbps</text><rect x="10.0" y="116" width="42" height="14" rx="5" stroke="black" fill="#f8f8f8" stroke-width="1" /><text x="31.0" y="123.0" text-anchor="middle" dominant-baseline="central" font-size="11" font-weight="bold" font-family="Roboto, Arial, sans-serif">cp</text><rect x="57.142857142857146" y="116" width="42" height="14" rx="5" stroke="black" fill="#f8f8f8" stroke-width="1" /><text x="78.14285714285714" y="123.0" text-anchor="middle" dominant-baseline="central" font-size="11" font-weight="bold" font-family="Roboto, Arial, sans-serif">exang</text><rect x="104.28571428571429" y="116" width="42" height="14" rx="5" stroke="black" fill="#f8f8f8" stroke-width="1" /><text x="125.28571428571429" y="123.0" text-anchor="middle" dominant-baseline="central" font-size="11" font-weight="bold" font-family="Roboto, Arial, sans-serif">fbs</text><rect x="151.42857142857144" y="116" width="42" height="14" rx="5" stroke="black" fill="#f8f8f8" stroke-width="1" /><text x="172.42857142857144" y="123.0" text-anchor="middle" dominant-baseline="central" font-size="11" font-weight="bold" font-family="Roboto, Arial, sans-serif">num</text><rect x="198.57142857142858" y="116" width="42" height="14" rx="5" stroke="black" fill="#f8f8f8" stroke-width="1" /><text x="219.57142857142858" y="123.0" text-anchor="middle" dominant-baseline="central" font-size="11" font-weight="bold" font-family="Roboto, Arial, sans-serif">restecg</text><rect x="245.71428571428572" y="116" width="42" height="14" rx="5" stroke="black" fill="#f8f8f8" stroke-width="1" /><text x="266.7142857142857" y="123.0" text-anchor="middle" dominant-baseline="central" font-size="11" font-weight="bold" font-family="Roboto, Arial, sans-serif">sex</text><rect x="292.8571428571429" y="116" width="42" height="14" rx="5" stroke="black" fill="#f8f8f8" stroke-width="1" /><text x="313.8571428571429" y="123.0" text-anchor="middle" dominant-baseline="central" font-size="11" font-weight="bold" font-family="Roboto, Arial, sans-serif">slope</text><path d="M172.42857142857144,116 L173.25,45.0" stroke="blue" stroke-width="0.8" fill="none" stroke-dasharray="3,2" marker-end="url(#arrow-up-4)" /><path d="M266.7142857142857,116 L178.5,45.0" stroke="blue" stroke-width="0.8" fill="none" stroke-dasharray="3,2" marker-end="url(#arrow-up-4)" /><path d="M31.0,116 L157.5,45.0" stroke="blue" stroke-width="0.8" fill="none" stroke-dasharray="3,2" marker-end="url(#arrow-up-4)" /><path d="M313.8571428571429,116 L183.75,45.0" stroke="blue" stroke-width="0.8" fill="none" stroke-dasharray="3,2" marker-end="url(#arrow-up-4)" /><path d="M172.42857142857144,116 L293.0,45.0" stroke="blue" stroke-width="0.8" fill="none" stroke-dasharray="3,2" marker-end="url(#arrow-up-4)" /><path d="M125.28571428571429,116 L286.0,45.0" stroke="blue" stroke-width="0.8" fill="none" stroke-dasharray="3,2" marker-end="url(#arrow-up-4)" /><path d="M266.7142857142857,116 L116.7,45.0" stroke="blue" stroke-width="0.8" fill="none" stroke-dasharray="3,2" marker-end="url(#arrow-up-4)" /><path d="M172.42857142857144,116 L227.0,45.0" stroke="blue" stroke-width="0.8" fill="none" stroke-dasharray="3,2" marker-end="url(#arrow-up-4)" /><path d="M31.0,116 L220.0,45.0" stroke="blue" stroke-width="0.8" fill="none" stroke-dasharray="3,2" marker-end="url(#arrow-up-4)" /><path d="M313.8571428571429,116 L244.5,45.0" stroke="blue" stroke-width="0.8" fill="none" stroke-dasharray="3,2" marker-end="url(#arrow-up-4)" /><path d="M172.42857142857144,116 L46.5,45.0" stroke="blue" stroke-width="0.8" fill="none" stroke-dasharray="3,2" marker-end="url(#arrow-up-4)" /><path d="M31.0,116 L25.5,45.0" stroke="blue" stroke-width="0.8" fill="none" stroke-dasharray="3,2" marker-end="url(#arrow-up-4)" /><path d="M125.28571428571429,116 L41.25,45.0" stroke="blue" stroke-width="0.8" fill="none" stroke-dasharray="3,2" marker-end="url(#arrow-up-4)" /><path d="M313.8571428571429,116 L51.75,45.0" stroke="blue" stroke-width="0.8" fill="none" stroke-dasharray="3,2" marker-end="url(#arrow-up-4)" /></g><g transform="translate(350, 280)"><rect x="2" y="2" width="346" height="136" fill="none" stroke="#ddd" stroke-width="1" rx="5" /><text x="175.0" y="20" text-anchor="middle" font-weight="bold" font-size="16" font-family="Roboto, Arial, sans-serif">GSF</text><rect x="15.0" y="30" width="42" height="14" rx="5" stroke="black" fill="#f8f8f8" stroke-width="1" /><text x="36.0" y="37.0" text-anchor="middle" dominant-baseline="central" font-size="11" font-weight="bold" font-family="Roboto, Arial, sans-serif">age</text><rect x="81.0" y="30" width="42" height="14" rx="5" stroke="black" fill="#f8f8f8" stroke-width="1" /><text x="102.0" y="37.0" text-anchor="middle" dominant-baseline="central" font-size="11" font-weight="bold" font-family="Roboto, Arial, sans-serif">chol</text><rect x="147.0" y="30" width="42" height="14" rx="5" stroke="black" fill="#f8f8f8" stroke-width="1" /><text x="168.0" y="37.0" text-anchor="middle" dominant-baseline="central" font-size="11" font-weight="bold" font-family="Roboto, Arial, sans-serif">oldpeak</text><rect x="213.0" y="30" width="42" height="14" rx="5" stroke="black" fill="#f8f8f8" stroke-width="1" /><text x="234.0" y="37.0" text-anchor="middle" dominant-baseline="central" font-size="11" font-weight="bold" font-family="Roboto, Arial, sans-serif">thalach</text><rect x="279.0" y="30" width="42" height="14" rx="5" stroke="black" fill="#f8f8f8" stroke-width="1" /><text x="300.0" y="37.0" text-anchor="middle" dominant-baseline="central" font-size="11" font-weight="bold" font-family="Roboto, Arial, sans-serif">trestbps</text><rect x="10.0" y="116" width="42" height="14" rx="5" stroke="black" fill="#f8f8f8" stroke-width="1" /><text x="31.0" y="123.0" text-anchor="middle" dominant-baseline="central" font-size="11" font-weight="bold" font-family="Roboto, Arial, sans-serif">cp</text><rect x="57.142857142857146" y="116" width="42" height="14" rx="5" stroke="black" fill="#f8f8f8" stroke-width="1" /><text x="78.14285714285714" y="123.0" text-anchor="middle" dominant-baseline="central" font-size="11" font-weight="bold" font-family="Roboto, Arial, sans-serif">exang</text><rect x="104.28571428571429" y="116" width="42" height="14" rx="5" stroke="black" fill="#f8f8f8" stroke-width="1" /><text x="125.28571428571429" y="123.0" text-anchor="middle" dominant-baseline="central" font-size="11" font-weight="bold" font-family="Roboto, Arial, sans-serif">fbs</text><rect x="151.42857142857144" y="116" width="42" height="14" rx="5" stroke="black" fill="#f8f8f8" stroke-width="1" /><text x="172.42857142857144" y="123.0" text-anchor="middle" dominant-baseline="central" font-size="11" font-weight="bold" font-family="Roboto, Arial, sans-serif">num</text><rect x="198.57142857142858" y="116" width="42" height="14" rx="5" stroke="black" fill="#f8f8f8" stroke-width="1" /><text x="219.57142857142858" y="123.0" text-anchor="middle" dominant-baseline="central" font-size="11" font-weight="bold" font-family="Roboto, Arial, sans-serif">restecg</text><rect x="245.71428571428572" y="116" width="42" height="14" rx="5" stroke="black" fill="#f8f8f8" stroke-width="1" /><text x="266.7142857142857" y="123.0" text-anchor="middle" dominant-baseline="central" font-size="11" font-weight="bold" font-family="Roboto, Arial, sans-serif">sex</text><rect x="292.8571428571429" y="116" width="42" height="14" rx="5" stroke="black" fill="#f8f8f8" stroke-width="1" /><text x="313.8571428571429" y="123.0" text-anchor="middle" dominant-baseline="central" font-size="11" font-weight="bold" font-family="Roboto, Arial, sans-serif">slope</text><path d="M168.0,44 L165.42857142857144,115.0" stroke="black" stroke-width="0.8" fill="none" stroke-dasharray="none" marker-end="url(#arrow-down-5)" /><path d="M168.0,44 L38.0,115.0" stroke="black" stroke-width="0.8" fill="none" stroke-dasharray="none" marker-end="url(#arrow-down-5)" /><path d="M168.0,44 L85.14285714285714,115.0" stroke="black" stroke-width="0.8" fill="none" stroke-dasharray="none" marker-end="url(#arrow-down-5)" /><path d="M313.8571428571429,116 L182.7,45.0" stroke="blue" stroke-width="0.8" fill="none" stroke-dasharray="3,2" marker-end="url(#arrow-up-5)" /><path d="M102.0,44 L252.01428571428573,115.0" stroke="black" stroke-width="0.8" fill="none" stroke-dasharray="none" marker-end="url(#arrow-down-5)" /><path d="M102.0,44 L204.8714285714286,115.0" stroke="black" stroke-width="0.8" fill="none" stroke-dasharray="none" marker-end="url(#arrow-down-5)" /><path d="M234.0,44 L182.92857142857144,115.0" stroke="black" stroke-width="0.8" fill="none" stroke-dasharray="none" marker-end="url(#arrow-down-5)" /><path d="M234.0,44 L45.0,115.0" stroke="black" stroke-width="0.8" fill="none" stroke-dasharray="none" marker-end="url(#arrow-down-5)" /><path d="M234.0,44 L92.14285714285714,115.0" stroke="black" stroke-width="0.8" fill="none" stroke-dasharray="none" marker-end="url(#arrow-down-5)" /><path d="M234.0,44 L299.1571428571429,115.0" stroke="black" stroke-width="0.8" fill="none" stroke-dasharray="none" marker-end="url(#arrow-down-5)" /><path d="M36.0,44 L158.42857142857144,115.0" stroke="black" stroke-width="0.8" fill="none" stroke-dasharray="none" marker-end="url(#arrow-down-5)" /></g></svg>