<svg xmlns="http://www.w3.org/2000/svg" width="350" height="140" viewBox="0 0 350 140"><defs><style type="text/css">@import url("https://fonts.googleapis.com/css2?family=Roboto:wght@400;700&amp;display=swap");</style><marker id="arrow-down-0" markerWidth="10" markerHeight="7" refX="9" refY="3.5" orient="auto"><polygon points="0 0, 10 3.5, 0 7" fill="black" /></marker><marker id="arrow-up-0" markerWidth="10" markerHeight="7" refX="9" refY="3.5" orient="auto"><polygon points="0 0, 10 3.5, 0 7" fill="blue" /></marker></defs><g transform="translate(0, 0)"><rect x="2" y="2" width="346" height="136" fill="none" stroke="#ddd" stroke-width="1" rx="5" /><text x="175.0" y="20" text-anchor="middle" font-weight="bold" font-size="16" font-family="Roboto, Arial, sans-serif">DRCD</text><rect x="15.0" y="30" width="42" height="14" rx="5" stroke="black" fill="#f8f8f8" stroke-width="1" /><text x="36.0" y="37.0" text-anchor="middle" dominant-baseline="central" font-size="11" font-weight="bold" font-family="Roboto, Arial, sans-serif">age</text><rect x="81.0" y="30" width="42" height="14" rx="5" stroke="black" fill="#f8f8f8" stroke-width="1" /><text x="102.0" y="37.0" text-anchor="middle" dominant-baseline="central" font-size="11" font-weight="bold" font-family="Roboto, Arial, sans-serif">chol</text><rect x="147.0" y="30" width="42" height="14" rx="5" stroke="black" fill="#f8f8f8" stroke-width="1" /><text x="168.0" y="37.0" text-anchor="middle" dominant-baseline="central" font-size="11" font-weight="bold" font-family="Roboto, Arial, sans-serif">oldpeak</text><rect x="213.0" y="30" width="42" height="14" rx="5" stroke="black" fill="#f8f8f8" stroke-width="1" /><text x="234.0" y="37.0" text-anchor="middle" dominant-baseline="central" font-size="11" font-weight="bold" font-family="Roboto, Arial, sans-serif">thalach</text><rect x="279.0" y="30" width="42" height="14" rx="5" stroke="black" fill="#f8f8f8" stroke-width="1" /><text x="300.0" y="37.0" text-anchor="middle" dominant-baseline="central" font-size="11" font-weight="bold" font-family="Roboto, Arial, sans-serif">trestbps</text><rect x="10.0" y="116" width="42" height="14" rx="5" stroke="black" fill="#f8f8f8" stroke-width="1" /><text x="31.0" y="123.0" text-anchor="middle" dominant-baseline="central" font-size="11" font-weight="bold" font-family="Roboto, Arial, sans-serif">cp</text><rect x="57.142857142857146" y="116" width="42" height="14" rx="5" stroke="black" fill="#f8f8f8" stroke-width="1" /><text x="78.14285714285714" y="123.0" text-anchor="middle" dominant-baseline="central" font-size="11" font-weight="bold" font-family="Roboto, Arial, sans-serif">exang</text><rect x="104.28571428571429" y="116" width="42" height="14" rx="5" stroke="black" fill="#f8f8f8" stroke-width="1" /><text x="125.28571428571429" y="123.0" text-anchor="middle" dominant-baseline="central" font-size="11" font-weight="bold" font-family="Roboto, Arial, sans-serif">fbs</text><rect x="151.42857142857144" y="116" width="42" height="14" rx="5" stroke="black" fill="#f8f8f8" stroke-width="1" /><text x="172.42857142857144" y="123.0" text-anchor="middle" dominant-baseline="central" font-size="11" font-weight="bold" font-family="Roboto, Arial, sans-serif">num</text><rect x="198.57142857142858" y="116" width="42" height="14" rx="5" stroke="black" fill="#f8f8f8" stroke-width="1" /><text x="219.57142857142858" y="123.0" text-anchor="middle" dominant-baseline="central" font-size="11" font-weight="bold" font-family="Roboto, Arial, sans-serif">restecg</text><rect x="245.71428571428572" y="116" width="42" height="14" rx="5" stroke="black" fill="#f8f8f8" stroke-width="1" /><text x="266.7142857142857" y="123.0" text-anchor="middle" dominant-baseline="central" font-size="11" font-weight="bold" font-family="Roboto, Arial, sans-serif">sex</text><rect x="292.8571428571429" y="116" width="42" height="14" rx="5" stroke="black" fill="#f8f8f8" stroke-width="1" /><text x="313.8571428571429" y="123.0" text-anchor="middle" dominant-baseline="central" font-size="11" font-weight="bold" font-family="Roboto, Arial, sans-serif">slope</text><path d="M168.0,44 L165.42857142857144,115.0" stroke="black" stroke-width="0.8" fill="none" stroke-dasharray="none" marker-end="url(#arrow-down-0)" /><path d="M168.0,44 L38.0,115.0" stroke="black" stroke-width="0.8" fill="none" stroke-dasharray="none" marker-end="url(#arrow-down-0)" /><path d="M168.0,44 L85.14285714285714,115.0" stroke="black" stroke-width="0.8" fill="none" stroke-dasharray="none" marker-end="url(#arrow-down-0)" /><path d="M168.0,44 L303.3571428571429,115.0" stroke="black" stroke-width="0.8" fill="none" stroke-dasharray="none" marker-end="url(#arrow-down-0)" /><path d="M300.0,44 L139.9857142857143,115.0" stroke="black" stroke-width="0.8" fill="none" stroke-dasharray="none" marker-end="url(#arrow-down-0)" /><path d="M300.0,44 L230.07142857142858,115.0" stroke="black" stroke-width="0.8" fill="none" stroke-dasharray="none" marker-end="url(#arrow-down-0)" /><path d="M266.7142857142857,116 L116.7,45.0" stroke="blue" stroke-width="0.8" fill="none" stroke-dasharray="3,2" marker-end="url(#arrow-up-0)" /><path d="M102.0,44 L212.57142857142858,115.0" stroke="black" stroke-width="0.8" fill="none" stroke-dasharray="none" marker-end="url(#arrow-down-0)" /><path d="M234.0,44 L182.92857142857144,115.0" stroke="black" stroke-width="0.8" fill="none" stroke-dasharray="none" marker-end="url(#arrow-down-0)" /><path d="M234.0,44 L45.0,115.0" stroke="black" stroke-width="0.8" fill="none" stroke-dasharray="none" marker-end="url(#arrow-down-0)" /><path d="M219.57142857142858,116 L219.3,45.0" stroke="blue" stroke-width="0.8" fill="none" stroke-dasharray="3,2" marker-end="url(#arrow-up-0)" /><path d="M234.0,44 L92.14285714285714,115.0" stroke="black" stroke-width="0.8" fill="none" stroke-dasharray="none" marker-end="url(#arrow-down-0)" /><path d="M234.0,44 L308.6071428571429,115.0" stroke="black" stroke-width="0.8" fill="none" stroke-dasharray="none" marker-end="url(#arrow-down-0)" /><path d="M36.0,44 L158.42857142857144,115.0" stroke="black" stroke-width="0.8" fill="none" stroke-dasharray="none" marker-end="url(#arrow-down-0)" /><path d="M36.0,44 L20.5,115.0" stroke="black" stroke-width="0.8" fill="none" stroke-dasharray="none" marker-end="url(#arrow-down-0)" /><path d="M36.0,44 L110.58571428571429,115.0" stroke="black" stroke-width="0.8" fill="none" stroke-dasharray="none" marker-end="url(#arrow-down-0)" /><path d="M36.0,44 L205.57142857142858,115.0" stroke="black" stroke-width="0.8" fill="none" stroke-dasharray="none" marker-end="url(#arrow-down-0)" /><path d="M36.0,44 L298.1071428571429,115.0" stroke="black" stroke-width="0.8" fill="none" stroke-dasharray="none" marker-end="url(#arrow-down-0)" /></g></svg>